<mxfile host="app.diagrams.net" modified="2023-07-29T08:03:33.945Z" agent="Mozilla/5.0 (Windows NT 10.0; Win64; x64) AppleWebKit/537.36 (KHTML, like Gecko) Chrome/115.0.0.0 Safari/537.36" etag="ekh4k6DujB_jYKA6jS6x" version="21.5.2" type="github">
  <diagram name="第 1 页" id="uL4GNsboAXaJ1_KjG3pS">
    <mxGraphModel dx="535" dy="314" grid="0" gridSize="10" guides="1" tooltips="1" connect="1" arrows="1" fold="1" page="1" pageScale="1" pageWidth="827" pageHeight="1169" math="0" shadow="0">
      <root>
        <mxCell id="0" />
        <mxCell id="1" parent="0" />
        <mxCell id="d99z_8fZVXnj83U1RD9M-7" style="rounded=0;orthogonalLoop=1;jettySize=auto;html=1;entryX=0.5;entryY=0;entryDx=0;entryDy=0;entryPerimeter=0;labelBackgroundColor=none;fontColor=default;strokeColor=#028090;" edge="1" parent="1" source="d99z_8fZVXnj83U1RD9M-2" target="d99z_8fZVXnj83U1RD9M-4">
          <mxGeometry relative="1" as="geometry" />
        </mxCell>
        <mxCell id="d99z_8fZVXnj83U1RD9M-9" style="edgeStyle=orthogonalEdgeStyle;rounded=0;orthogonalLoop=1;jettySize=auto;html=1;entryX=0.5;entryY=0;entryDx=0;entryDy=0;entryPerimeter=0;labelBackgroundColor=none;fontColor=default;strokeColor=#028090;" edge="1" parent="1" source="d99z_8fZVXnj83U1RD9M-2" target="d99z_8fZVXnj83U1RD9M-5">
          <mxGeometry relative="1" as="geometry" />
        </mxCell>
        <mxCell id="d99z_8fZVXnj83U1RD9M-10" style="rounded=0;orthogonalLoop=1;jettySize=auto;html=1;entryX=0.5;entryY=0;entryDx=0;entryDy=0;entryPerimeter=0;labelBackgroundColor=none;fontColor=default;strokeColor=#028090;" edge="1" parent="1" source="d99z_8fZVXnj83U1RD9M-2" target="d99z_8fZVXnj83U1RD9M-6">
          <mxGeometry relative="1" as="geometry" />
        </mxCell>
        <mxCell id="d99z_8fZVXnj83U1RD9M-2" value="ShardingSphere" style="strokeWidth=2;html=1;shape=mxgraph.flowchart.database;whiteSpace=wrap;labelBackgroundColor=none;fillColor=#F45B69;strokeColor=#028090;fontColor=#E4FDE1;" vertex="1" parent="1">
          <mxGeometry x="330" y="90" width="100" height="60" as="geometry" />
        </mxCell>
        <mxCell id="d99z_8fZVXnj83U1RD9M-4" value="MySQL" style="strokeWidth=2;html=1;shape=mxgraph.flowchart.database;whiteSpace=wrap;labelBackgroundColor=none;fillColor=#F45B69;strokeColor=#028090;fontColor=#E4FDE1;" vertex="1" parent="1">
          <mxGeometry x="240" y="230" width="60" height="60" as="geometry" />
        </mxCell>
        <mxCell id="d99z_8fZVXnj83U1RD9M-5" value="MySQL" style="strokeWidth=2;html=1;shape=mxgraph.flowchart.database;whiteSpace=wrap;labelBackgroundColor=none;fillColor=#F45B69;strokeColor=#028090;fontColor=#E4FDE1;" vertex="1" parent="1">
          <mxGeometry x="350" y="230" width="60" height="60" as="geometry" />
        </mxCell>
        <mxCell id="d99z_8fZVXnj83U1RD9M-6" value="MySQL" style="strokeWidth=2;html=1;shape=mxgraph.flowchart.database;whiteSpace=wrap;labelBackgroundColor=none;fillColor=#F45B69;strokeColor=#028090;fontColor=#E4FDE1;" vertex="1" parent="1">
          <mxGeometry x="460" y="230" width="60" height="60" as="geometry" />
        </mxCell>
        <mxCell id="d99z_8fZVXnj83U1RD9M-20" style="rounded=0;orthogonalLoop=1;jettySize=auto;html=1;strokeColor=#028090;fontColor=#E4FDE1;fillColor=#F45B69;" edge="1" parent="1">
          <mxGeometry relative="1" as="geometry">
            <mxPoint x="313" y="378" as="sourcePoint" />
            <mxPoint x="461" y="378" as="targetPoint" />
          </mxGeometry>
        </mxCell>
        <mxCell id="d99z_8fZVXnj83U1RD9M-14" value="MySQL_A" style="strokeWidth=2;html=1;shape=mxgraph.flowchart.database;whiteSpace=wrap;labelBackgroundColor=none;fillColor=#F45B69;strokeColor=#028090;fontColor=#E4FDE1;" vertex="1" parent="1">
          <mxGeometry x="235" y="361" width="80" height="60" as="geometry" />
        </mxCell>
        <mxCell id="d99z_8fZVXnj83U1RD9M-21" style="rounded=0;orthogonalLoop=1;jettySize=auto;html=1;entryX=1;entryY=0.5;entryDx=0;entryDy=0;entryPerimeter=0;strokeColor=#028090;fontColor=#E4FDE1;fillColor=#F45B69;" edge="1" parent="1">
          <mxGeometry relative="1" as="geometry">
            <mxPoint x="461" y="401" as="sourcePoint" />
            <mxPoint x="313" y="401" as="targetPoint" />
          </mxGeometry>
        </mxCell>
        <mxCell id="d99z_8fZVXnj83U1RD9M-15" value="MySQL_B" style="strokeWidth=2;html=1;shape=mxgraph.flowchart.database;whiteSpace=wrap;labelBackgroundColor=none;fillColor=#F45B69;strokeColor=#028090;fontColor=#E4FDE1;" vertex="1" parent="1">
          <mxGeometry x="463" y="361" width="80" height="60" as="geometry" />
        </mxCell>
        <mxCell id="d99z_8fZVXnj83U1RD9M-16" value="binlog" style="shape=document;whiteSpace=wrap;html=1;boundedLbl=1;fillColor=#dae8fc;strokeColor=#6c8ebf;" vertex="1" parent="1">
          <mxGeometry x="234" y="434" width="82" height="51" as="geometry" />
        </mxCell>
        <mxCell id="d99z_8fZVXnj83U1RD9M-17" value="binlog" style="shape=document;whiteSpace=wrap;html=1;boundedLbl=1;strokeColor=#6c8ebf;fillColor=#dae8fc;" vertex="1" parent="1">
          <mxGeometry x="462" y="434" width="82" height="51" as="geometry" />
        </mxCell>
        <mxCell id="d99z_8fZVXnj83U1RD9M-22" value="&lt;font color=&quot;#000000&quot;&gt;订阅&lt;/font&gt;" style="text;html=1;align=center;verticalAlign=middle;resizable=0;points=[];autosize=1;strokeColor=none;fillColor=none;fontColor=#E4FDE1;" vertex="1" parent="1">
          <mxGeometry x="364" y="354" width="42" height="26" as="geometry" />
        </mxCell>
        <mxCell id="d99z_8fZVXnj83U1RD9M-23" value="&lt;font color=&quot;#000000&quot;&gt;订阅&lt;/font&gt;" style="text;html=1;align=center;verticalAlign=middle;resizable=0;points=[];autosize=1;strokeColor=none;fillColor=none;fontColor=#E4FDE1;" vertex="1" parent="1">
          <mxGeometry x="366" y="401" width="42" height="26" as="geometry" />
        </mxCell>
        <mxCell id="d99z_8fZVXnj83U1RD9M-31" style="rounded=0;orthogonalLoop=1;jettySize=auto;html=1;strokeColor=#028090;fontColor=#E4FDE1;fillColor=#F45B69;" edge="1" parent="1" source="d99z_8fZVXnj83U1RD9M-25" target="d99z_8fZVXnj83U1RD9M-27">
          <mxGeometry relative="1" as="geometry" />
        </mxCell>
        <mxCell id="d99z_8fZVXnj83U1RD9M-32" style="rounded=0;orthogonalLoop=1;jettySize=auto;html=1;strokeColor=#028090;fontColor=#E4FDE1;fillColor=#F45B69;" edge="1" parent="1" source="d99z_8fZVXnj83U1RD9M-25" target="d99z_8fZVXnj83U1RD9M-28">
          <mxGeometry relative="1" as="geometry" />
        </mxCell>
        <mxCell id="d99z_8fZVXnj83U1RD9M-35" style="rounded=0;orthogonalLoop=1;jettySize=auto;html=1;entryX=0;entryY=0.5;entryDx=0;entryDy=0;entryPerimeter=0;strokeColor=#000000;fontColor=#E4FDE1;fillColor=#F45B69;startArrow=block;startFill=1;" edge="1" parent="1" source="d99z_8fZVXnj83U1RD9M-25" target="d99z_8fZVXnj83U1RD9M-26">
          <mxGeometry relative="1" as="geometry" />
        </mxCell>
        <mxCell id="d99z_8fZVXnj83U1RD9M-36" value="&lt;font color=&quot;#000000&quot;&gt;主从双向同步&lt;/font&gt;" style="edgeLabel;html=1;align=center;verticalAlign=middle;resizable=0;points=[];fontColor=#E4FDE1;" vertex="1" connectable="0" parent="d99z_8fZVXnj83U1RD9M-35">
          <mxGeometry x="-0.0485" y="1" relative="1" as="geometry">
            <mxPoint as="offset" />
          </mxGeometry>
        </mxCell>
        <mxCell id="d99z_8fZVXnj83U1RD9M-25" value="MySQL_1" style="strokeWidth=2;html=1;shape=mxgraph.flowchart.database;whiteSpace=wrap;labelBackgroundColor=none;fillColor=#F45B69;strokeColor=#028090;fontColor=#E4FDE1;" vertex="1" parent="1">
          <mxGeometry x="222" y="555" width="80" height="60" as="geometry" />
        </mxCell>
        <mxCell id="d99z_8fZVXnj83U1RD9M-33" style="rounded=0;orthogonalLoop=1;jettySize=auto;html=1;strokeColor=#028090;fontColor=#E4FDE1;fillColor=#F45B69;entryX=0.563;entryY=0;entryDx=0;entryDy=0;entryPerimeter=0;" edge="1" parent="1" source="d99z_8fZVXnj83U1RD9M-26" target="d99z_8fZVXnj83U1RD9M-29">
          <mxGeometry relative="1" as="geometry">
            <mxPoint x="464.17660958426336" y="631.9077933175223" as="targetPoint" />
          </mxGeometry>
        </mxCell>
        <mxCell id="d99z_8fZVXnj83U1RD9M-34" style="rounded=0;orthogonalLoop=1;jettySize=auto;html=1;entryX=0.5;entryY=0;entryDx=0;entryDy=0;entryPerimeter=0;strokeColor=#028090;fontColor=#E4FDE1;fillColor=#F45B69;" edge="1" parent="1" source="d99z_8fZVXnj83U1RD9M-26" target="d99z_8fZVXnj83U1RD9M-30">
          <mxGeometry relative="1" as="geometry" />
        </mxCell>
        <mxCell id="d99z_8fZVXnj83U1RD9M-26" value="MySQL_4" style="strokeWidth=2;html=1;shape=mxgraph.flowchart.database;whiteSpace=wrap;labelBackgroundColor=none;fillColor=#F45B69;strokeColor=#028090;fontColor=#E4FDE1;" vertex="1" parent="1">
          <mxGeometry x="471" y="555" width="80" height="60" as="geometry" />
        </mxCell>
        <mxCell id="d99z_8fZVXnj83U1RD9M-27" value="MySQL_2" style="strokeWidth=2;html=1;shape=mxgraph.flowchart.database;whiteSpace=wrap;labelBackgroundColor=none;fillColor=#F45B69;strokeColor=#028090;fontColor=#E4FDE1;" vertex="1" parent="1">
          <mxGeometry x="162" y="640" width="80" height="60" as="geometry" />
        </mxCell>
        <mxCell id="d99z_8fZVXnj83U1RD9M-28" value="MySQL_3" style="strokeWidth=2;html=1;shape=mxgraph.flowchart.database;whiteSpace=wrap;labelBackgroundColor=none;fillColor=#F45B69;strokeColor=#028090;fontColor=#E4FDE1;" vertex="1" parent="1">
          <mxGeometry x="274" y="640" width="80" height="60" as="geometry" />
        </mxCell>
        <mxCell id="d99z_8fZVXnj83U1RD9M-29" value="MySQL_5" style="strokeWidth=2;html=1;shape=mxgraph.flowchart.database;whiteSpace=wrap;labelBackgroundColor=none;fillColor=#F45B69;strokeColor=#028090;fontColor=#E4FDE1;" vertex="1" parent="1">
          <mxGeometry x="414" y="640" width="80" height="60" as="geometry" />
        </mxCell>
        <mxCell id="d99z_8fZVXnj83U1RD9M-30" value="MySQL_6" style="strokeWidth=2;html=1;shape=mxgraph.flowchart.database;whiteSpace=wrap;labelBackgroundColor=none;fillColor=#F45B69;strokeColor=#028090;fontColor=#E4FDE1;" vertex="1" parent="1">
          <mxGeometry x="526" y="640" width="80" height="60" as="geometry" />
        </mxCell>
      </root>
    </mxGraphModel>
  </diagram>
</mxfile>
